<svg xmlns="http://www.w3.org/2000/svg" xmlns:xlink="http://www.w3.org/1999/xlink" width="74.438" height="74.438" viewBox="0 0 74.438 74.438"><defs><style>.a{fill:#fff;}.b{filter:url(#a);}</style><filter id="a" x="0" y="0" width="74.438" height="74.438" filterUnits="userSpaceOnUse"><feOffset dy="3" input="SourceAlpha"/><feGaussianBlur stdDeviation="3" result="b"/><feFlood flood-opacity="0.161"/><feComposite operator="in" in2="b"/><feComposite in="SourceGraphic"/></filter></defs><g class="b" transform="matrix(1, 0, 0, 1, 0, 0)"><path class="a" d="M57,28.781A28.219,28.219,0,1,1,28.781.563,28.214,28.214,0,0,1,57,28.781ZM30.716,41.741,46.134,26.323a2.72,2.72,0,0,0,0-3.857L44.2,20.532a2.72,2.72,0,0,0-3.857,0L28.781,32.092,17.221,20.532a2.72,2.72,0,0,0-3.857,0l-1.934,1.934a2.72,2.72,0,0,0,0,3.857L26.847,41.741A2.733,2.733,0,0,0,30.716,41.741Z" transform="translate(8.44 5.44)"/></g></svg>